# xmcd
#
# Track frame offsets:
#	150
#	21051
#	40562
#	59533
#	84962
#	104846
#	121396
#	138135
#	160293
#	183531
#	211798
#
# Disc length: 3130 seconds
#
# Revision: 1
# Processed by: cddbd v1.5.1PL0 Copyright (c) Steve Scherf et al.
# Submitted via: CDex 1.50Beta5
#
DISCID=8e0c380b
DTITLE=織田 裕二 - 11 Colors
DYEAR=1900
DGENRE=
TTITLE0=真珠
TTITLE1=We can be Heroes
TTITLE2=蜃気楼
TTITLE3=Love Somebody(CINEMA Version
TTITLE4=今、ここに君はいる in Paris
TTITLE5=4 leaf clover
TTITLE6=そんなもんだろう
TTITLE7=ピエロ
TTITLE8=Grasshopper’s Life
TTITLE9=T.R.Y.
TTITLE10=ちぎれた雲
EXTD=
EXTT0=
EXTT1=
EXTT2=
EXTT3=
EXTT4=
EXTT5=
EXTT6=
EXTT7=
EXTT8=
EXTT9=
EXTT10=
PLAYORDER=
